<svg xmlns="http://www.w3.org/2000/svg" xmlns:xlink="http://www.w3.org/1999/xlink" width="500" zoomAndPan="magnify" viewBox="0 0 375 374.999991" height="500" preserveAspectRatio="xMidYMid meet" version="1.0"><defs><g/></defs><rect x="-37.5" width="450" fill="#ffffff" y="-37.499999" height="449.999989" fill-opacity="1"/><rect x="-37.5" width="450" fill="#ffffff" y="-37.499999" height="449.999989" fill-opacity="1"/><rect x="-37.5" width="450" fill="#000000" y="-37.499999" height="449.999989" fill-opacity="1"/><g fill="#ffffff" fill-opacity="1"><g transform="translate(26.124026, 190.499987)"><g><path d="M 3.609375 0 L 3.609375 -27.65625 L 20.125 -27.65625 L 20.125 -25.53125 L 6.75 -25.53125 L 6.75 -14.453125 L 16.890625 -14.453125 L 16.890625 -12.484375 L 6.75 -12.484375 L 6.75 0 Z M 3.609375 0 "/></g></g></g><g fill="#ffffff" fill-opacity="1"><g transform="translate(47.778364, 190.499987)"><g><path d="M 13.40625 -18.5625 C 10.738281 -18.5625 8.335938 -17.609375 6.203125 -15.703125 L 6.203125 0 L 3.25 0 L 3.25 -20.640625 L 5.25 -20.640625 C 5.59375 -20.640625 5.828125 -20.398438 5.953125 -19.921875 C 6.097656 -19.378906 6.203125 -18.269531 6.265625 -16.59375 C 8.816406 -19.457031 11.117188 -20.890625 13.171875 -20.890625 C 13.398438 -20.890625 13.578125 -20.878906 13.703125 -20.859375 L 13.703125 -18.5625 Z M 13.40625 -18.5625 "/></g></g></g><g fill="#ffffff" fill-opacity="1"><g transform="translate(62.661599, 190.499987)"><g><path d="M 17.15625 0 C 16.488281 0 16.019531 -0.21875 15.75 -0.65625 C 15.445312 -1.09375 15.210938 -1.988281 15.046875 -3.34375 C 12.835938 -0.9375 10.488281 0.265625 8 0.265625 C 6.15625 0.265625 4.671875 -0.238281 3.546875 -1.25 C 2.367188 -2.3125 1.78125 -3.769531 1.78125 -5.625 C 1.78125 -7.570312 2.53125 -9.082031 4.03125 -10.15625 C 5.40625 -11.15625 7.265625 -11.65625 9.609375 -11.65625 C 11.203125 -11.65625 13.050781 -11.382812 15.15625 -10.84375 L 15.15625 -14.640625 C 15.15625 -16.191406 14.726562 -17.328125 13.875 -18.046875 C 13.039062 -18.734375 11.757812 -19.078125 10.03125 -19.078125 C 7.625 -19.078125 5.539062 -18.476562 3.78125 -17.28125 L 3.3125 -17.28125 L 3.3125 -19.34375 C 5.664062 -20.457031 8.078125 -21.015625 10.546875 -21.015625 C 15.597656 -21.015625 18.125 -18.988281 18.125 -14.9375 L 18.125 0 Z M 9.40625 -1.3125 C 11.476562 -1.3125 13.394531 -2.296875 15.15625 -4.265625 L 15.15625 -9.765625 C 13.34375 -10.140625 11.75 -10.328125 10.375 -10.328125 C 6.539062 -10.328125 4.625 -8.832031 4.625 -5.84375 C 4.625 -4.332031 5.078125 -3.179688 5.984375 -2.390625 C 6.816406 -1.671875 7.957031 -1.3125 9.40625 -1.3125 Z M 9.40625 -1.3125 "/></g></g></g><g fill="#ffffff" fill-opacity="1"><g transform="translate(83.150779, 190.499987)"><g><path d="M 20.203125 -0.0625 C 20.203125 2.238281 19.347656 4.007812 17.640625 5.25 C 15.992188 6.457031 13.710938 7.0625 10.796875 7.0625 C 7.597656 7.0625 4.992188 6.546875 2.984375 5.515625 L 2.984375 3.359375 L 3.390625 3.359375 C 5.128906 4.617188 7.378906 5.25 10.140625 5.25 C 14.898438 5.25 17.28125 3.375 17.28125 -0.375 L 17.28125 -4.46875 C 14.863281 -1.84375 12.382812 -0.53125 9.84375 -0.53125 C 7.570312 -0.53125 5.734375 -1.285156 4.328125 -2.796875 C 2.734375 -4.503906 1.9375 -7.003906 1.9375 -10.296875 C 1.9375 -13.910156 2.832031 -16.671875 4.625 -18.578125 C 6.144531 -20.203125 8.09375 -21.015625 10.46875 -21.015625 C 12.96875 -21.015625 15.238281 -19.984375 17.28125 -17.921875 C 17.769531 -19.734375 18.320312 -20.640625 18.9375 -20.640625 L 20.203125 -20.640625 Z M 10.96875 -2.328125 C 13.15625 -2.328125 15.257812 -3.367188 17.28125 -5.453125 L 17.28125 -16.578125 C 15.664062 -18.148438 13.742188 -18.9375 11.515625 -18.9375 C 7.085938 -18.9375 4.875 -16.164062 4.875 -10.625 C 4.875 -7.582031 5.441406 -5.394531 6.578125 -4.0625 C 7.554688 -2.90625 9.019531 -2.328125 10.96875 -2.328125 Z M 10.96875 -2.328125 "/></g></g></g><g fill="#ffffff" fill-opacity="1"><g transform="translate(105.816385, 190.499987)"><g><path d="M 17.15625 0 C 16.488281 0 16.019531 -0.21875 15.75 -0.65625 C 15.445312 -1.09375 15.210938 -1.988281 15.046875 -3.34375 C 12.835938 -0.9375 10.488281 0.265625 8 0.265625 C 6.15625 0.265625 4.671875 -0.238281 3.546875 -1.25 C 2.367188 -2.3125 1.78125 -3.769531 1.78125 -5.625 C 1.78125 -7.570312 2.53125 -9.082031 4.03125 -10.15625 C 5.40625 -11.15625 7.265625 -11.65625 9.609375 -11.65625 C 11.203125 -11.65625 13.050781 -11.382812 15.15625 -10.84375 L 15.15625 -14.640625 C 15.15625 -16.191406 14.726562 -17.328125 13.875 -18.046875 C 13.039062 -18.734375 11.757812 -19.078125 10.03125 -19.078125 C 7.625 -19.078125 5.539062 -18.476562 3.78125 -17.28125 L 3.3125 -17.28125 L 3.3125 -19.34375 C 5.664062 -20.457031 8.078125 -21.015625 10.546875 -21.015625 C 15.597656 -21.015625 18.125 -18.988281 18.125 -14.9375 L 18.125 0 Z M 9.40625 -1.3125 C 11.476562 -1.3125 13.394531 -2.296875 15.15625 -4.265625 L 15.15625 -9.765625 C 13.34375 -10.140625 11.75 -10.328125 10.375 -10.328125 C 6.539062 -10.328125 4.625 -8.832031 4.625 -5.84375 C 4.625 -4.332031 5.078125 -3.179688 5.984375 -2.390625 C 6.816406 -1.671875 7.957031 -1.3125 9.40625 -1.3125 Z M 9.40625 -1.3125 "/></g></g></g><g fill="#ffffff" fill-opacity="1"><g transform="translate(126.305566, 190.499987)"><g><path d="M 5.171875 -20.640625 C 5.492188 -20.640625 5.726562 -20.429688 5.875 -20.015625 C 6.019531 -19.515625 6.117188 -18.570312 6.171875 -17.1875 C 9.535156 -19.738281 12.539062 -21.015625 15.1875 -21.015625 C 18.5 -21.015625 20.15625 -19.222656 20.15625 -15.640625 L 20.15625 0 L 17.234375 0 L 17.234375 -14.59375 C 17.234375 -16.164062 16.882812 -17.273438 16.1875 -17.921875 C 15.570312 -18.472656 14.582031 -18.75 13.21875 -18.75 C 11.164062 -18.75 8.796875 -17.945312 6.109375 -16.34375 L 6.109375 0 L 3.171875 0 L 3.171875 -20.640625 Z M 5.171875 -20.640625 "/></g></g></g><g fill="#ffffff" fill-opacity="1"><g transform="translate(148.773315, 190.499987)"><g><path d="M 11.78125 0.265625 C 8.644531 0.265625 6.195312 -0.671875 4.4375 -2.546875 C 2.695312 -4.410156 1.828125 -6.992188 1.828125 -10.296875 C 1.828125 -13.578125 2.796875 -16.195312 4.734375 -18.15625 C 6.609375 -20.0625 9.023438 -21.015625 11.984375 -21.015625 C 14.191406 -21.015625 16.191406 -20.519531 17.984375 -19.53125 L 17.984375 -17.21875 L 17.125 -17.21875 C 15.664062 -18.445312 13.945312 -19.0625 11.96875 -19.0625 C 9.820312 -19.0625 8.101562 -18.300781 6.8125 -16.78125 C 5.476562 -15.195312 4.8125 -13.035156 4.8125 -10.296875 C 4.8125 -7.460938 5.453125 -5.296875 6.734375 -3.796875 C 7.960938 -2.367188 9.679688 -1.65625 11.890625 -1.65625 C 14.234375 -1.65625 16.113281 -2.359375 17.53125 -3.765625 L 18.15625 -3.765625 L 18.15625 -1.671875 C 16.375 -0.378906 14.25 0.265625 11.78125 0.265625 Z M 11.78125 0.265625 "/></g></g></g><g fill="#ffffff" fill-opacity="1"><g transform="translate(168.185274, 190.499987)"><g><path d="M 3.40625 0 L 3.40625 -20.640625 L 5.09375 -20.640625 C 5.625 -20.640625 5.960938 -20.488281 6.109375 -20.1875 C 6.253906 -19.875 6.328125 -19.160156 6.328125 -18.046875 L 6.328125 0 Z M 4.90625 -24.5 C 4.394531 -24.5 3.953125 -24.664062 3.578125 -25 C 3.234375 -25.332031 3.0625 -25.742188 3.0625 -26.234375 C 3.0625 -26.753906 3.242188 -27.203125 3.609375 -27.578125 C 3.960938 -27.921875 4.394531 -28.09375 4.90625 -28.09375 C 5.40625 -28.09375 5.835938 -27.921875 6.203125 -27.578125 C 6.566406 -27.191406 6.75 -26.742188 6.75 -26.234375 C 6.75 -25.742188 6.566406 -25.332031 6.203125 -25 C 5.835938 -24.664062 5.40625 -24.5 4.90625 -24.5 Z M 4.90625 -24.5 "/></g></g></g><g fill="#ffffff" fill-opacity="1"><g transform="translate(177.748357, 190.499987)"><g><path d="M 17.15625 0 C 16.488281 0 16.019531 -0.21875 15.75 -0.65625 C 15.445312 -1.09375 15.210938 -1.988281 15.046875 -3.34375 C 12.835938 -0.9375 10.488281 0.265625 8 0.265625 C 6.15625 0.265625 4.671875 -0.238281 3.546875 -1.25 C 2.367188 -2.3125 1.78125 -3.769531 1.78125 -5.625 C 1.78125 -7.570312 2.53125 -9.082031 4.03125 -10.15625 C 5.40625 -11.15625 7.265625 -11.65625 9.609375 -11.65625 C 11.203125 -11.65625 13.050781 -11.382812 15.15625 -10.84375 L 15.15625 -14.640625 C 15.15625 -16.191406 14.726562 -17.328125 13.875 -18.046875 C 13.039062 -18.734375 11.757812 -19.078125 10.03125 -19.078125 C 7.625 -19.078125 5.539062 -18.476562 3.78125 -17.28125 L 3.3125 -17.28125 L 3.3125 -19.34375 C 5.664062 -20.457031 8.078125 -21.015625 10.546875 -21.015625 C 15.597656 -21.015625 18.125 -18.988281 18.125 -14.9375 L 18.125 0 Z M 9.40625 -1.3125 C 11.476562 -1.3125 13.394531 -2.296875 15.15625 -4.265625 L 15.15625 -9.765625 C 13.34375 -10.140625 11.75 -10.328125 10.375 -10.328125 C 6.539062 -10.328125 4.625 -8.832031 4.625 -5.84375 C 4.625 -4.332031 5.078125 -3.179688 5.984375 -2.390625 C 6.816406 -1.671875 7.957031 -1.3125 9.40625 -1.3125 Z M 9.40625 -1.3125 "/></g></g></g><g fill="#ffffff" fill-opacity="1"><g transform="translate(198.237538, 190.499987)"><g><path d="M 8.53125 0.171875 C 6.125 0.171875 3.953125 -0.347656 2.015625 -1.390625 L 2.015625 -3.6875 L 2.421875 -3.6875 C 3.890625 -2.375 5.851562 -1.71875 8.3125 -1.71875 C 11.84375 -1.71875 13.609375 -3.003906 13.609375 -5.578125 C 13.609375 -6.765625 13.25 -7.628906 12.53125 -8.171875 C 11.769531 -8.734375 10.367188 -9.160156 8.328125 -9.453125 L 8.359375 -9.453125 C 6.210938 -9.785156 4.648438 -10.359375 3.671875 -11.171875 C 2.566406 -12.078125 2.015625 -13.394531 2.015625 -15.125 C 2.015625 -16.96875 2.671875 -18.40625 3.984375 -19.4375 C 5.242188 -20.414062 6.988281 -20.90625 9.21875 -20.90625 C 11.445312 -20.90625 13.378906 -20.46875 15.015625 -19.59375 L 15.015625 -17.4375 L 14.59375 -17.4375 C 13.101562 -18.488281 11.335938 -19.015625 9.296875 -19.015625 C 6.078125 -19.015625 4.46875 -17.84375 4.46875 -15.5 C 4.46875 -14.414062 4.863281 -13.601562 5.65625 -13.0625 C 6.457031 -12.519531 7.847656 -12.113281 9.828125 -11.84375 L 9.8125 -11.84375 C 12.09375 -11.476562 13.710938 -10.890625 14.671875 -10.078125 C 15.710938 -9.160156 16.234375 -7.785156 16.234375 -5.953125 C 16.234375 -4.023438 15.609375 -2.53125 14.359375 -1.46875 C 13.035156 -0.375 11.09375 0.171875 8.53125 0.171875 Z M 8.53125 0.171875 "/></g></g></g><g fill="#ffffff" fill-opacity="1"><g transform="translate(215.824817, 190.499987)"><g/></g></g><g fill="#ffffff" fill-opacity="1"><g transform="translate(226.992728, 190.499987)"><g><path d="M 1.671875 -0.703125 L 11.078125 -27.65625 L 14.859375 -27.65625 L 24.203125 -0.703125 L 24.203125 0 L 21.125 0 L 18.46875 -8.109375 L 6.75 -8.109375 C 6.488281 -7.234375 6.0625 -5.882812 5.46875 -4.0625 C 4.882812 -2.25 4.453125 -0.894531 4.171875 0 L 1.671875 0 Z M 7.453125 -10.09375 L 17.78125 -10.09375 L 13.171875 -24.203125 L 12.078125 -24.203125 Z M 7.453125 -10.09375 "/></g></g></g><g fill="#ffffff" fill-opacity="1"><g transform="translate(252.362377, 190.499987)"><g><path d="M 13.40625 -18.5625 C 10.738281 -18.5625 8.335938 -17.609375 6.203125 -15.703125 L 6.203125 0 L 3.25 0 L 3.25 -20.640625 L 5.25 -20.640625 C 5.59375 -20.640625 5.828125 -20.398438 5.953125 -19.921875 C 6.097656 -19.378906 6.203125 -18.269531 6.265625 -16.59375 C 8.816406 -19.457031 11.117188 -20.890625 13.171875 -20.890625 C 13.398438 -20.890625 13.578125 -20.878906 13.703125 -20.859375 L 13.703125 -18.5625 Z M 13.40625 -18.5625 "/></g></g></g><g fill="#ffffff" fill-opacity="1"><g transform="translate(267.245624, 190.499987)"><g><path d="M 17.15625 0 C 16.488281 0 16.019531 -0.21875 15.75 -0.65625 C 15.445312 -1.09375 15.210938 -1.988281 15.046875 -3.34375 C 12.835938 -0.9375 10.488281 0.265625 8 0.265625 C 6.15625 0.265625 4.671875 -0.238281 3.546875 -1.25 C 2.367188 -2.3125 1.78125 -3.769531 1.78125 -5.625 C 1.78125 -7.570312 2.53125 -9.082031 4.03125 -10.15625 C 5.40625 -11.15625 7.265625 -11.65625 9.609375 -11.65625 C 11.203125 -11.65625 13.050781 -11.382812 15.15625 -10.84375 L 15.15625 -14.640625 C 15.15625 -16.191406 14.726562 -17.328125 13.875 -18.046875 C 13.039062 -18.734375 11.757812 -19.078125 10.03125 -19.078125 C 7.625 -19.078125 5.539062 -18.476562 3.78125 -17.28125 L 3.3125 -17.28125 L 3.3125 -19.34375 C 5.664062 -20.457031 8.078125 -21.015625 10.546875 -21.015625 C 15.597656 -21.015625 18.125 -18.988281 18.125 -14.9375 L 18.125 0 Z M 9.40625 -1.3125 C 11.476562 -1.3125 13.394531 -2.296875 15.15625 -4.265625 L 15.15625 -9.765625 C 13.34375 -10.140625 11.75 -10.328125 10.375 -10.328125 C 6.539062 -10.328125 4.625 -8.832031 4.625 -5.84375 C 4.625 -4.332031 5.078125 -3.179688 5.984375 -2.390625 C 6.816406 -1.671875 7.957031 -1.3125 9.40625 -1.3125 Z M 9.40625 -1.3125 "/></g></g></g><g fill="#ffffff" fill-opacity="1"><g transform="translate(287.734804, 190.499987)"><g><path d="M 6.0625 -16.859375 C 8.78125 -19.628906 11.398438 -21.015625 13.921875 -21.015625 C 16.078125 -21.015625 17.820312 -20.257812 19.15625 -18.75 C 20.738281 -16.9375 21.53125 -14.226562 21.53125 -10.625 C 21.53125 -6.863281 20.632812 -4.035156 18.84375 -2.140625 C 17.332031 -0.535156 15.375 0.265625 12.96875 0.265625 C 10.40625 0.265625 8.09375 -0.679688 6.03125 -2.578125 C 5.394531 -0.859375 4.773438 0 4.171875 0 L 3.125 0 L 3.125 -28.125 L 4.84375 -28.125 C 5.363281 -28.125 5.695312 -27.992188 5.84375 -27.734375 C 5.988281 -27.460938 6.0625 -26.867188 6.0625 -25.953125 Z M 12.328125 -18.9375 C 10.367188 -18.9375 8.28125 -17.972656 6.0625 -16.046875 L 6.0625 -4 C 7.625 -2.363281 9.550781 -1.546875 11.84375 -1.546875 C 16.257812 -1.546875 18.46875 -4.429688 18.46875 -10.203125 C 18.46875 -16.023438 16.421875 -18.9375 12.328125 -18.9375 Z M 12.328125 -18.9375 "/></g></g></g><g fill="#ffffff" fill-opacity="1"><g transform="translate(310.400422, 190.499987)"><g><path d="M 4.84375 -10.21875 C 4.957031 -7.195312 5.644531 -4.992188 6.90625 -3.609375 C 8.101562 -2.273438 9.875 -1.609375 12.21875 -1.609375 C 14.695312 -1.609375 16.8125 -2.289062 18.5625 -3.65625 L 19.046875 -3.65625 L 19.046875 -1.671875 C 17.148438 -0.378906 14.65625 0.265625 11.5625 0.265625 C 8.457031 0.265625 6.054688 -0.671875 4.359375 -2.546875 C 2.671875 -4.398438 1.828125 -6.96875 1.828125 -10.25 C 1.828125 -13.5 2.71875 -16.125 4.5 -18.125 C 6.238281 -20.050781 8.453125 -21.015625 11.140625 -21.015625 C 16.859375 -21.015625 19.71875 -17.6875 19.71875 -11.03125 L 19.703125 -10.21875 Z M 11.140625 -19.4375 C 7.492188 -19.4375 5.398438 -16.84375 4.859375 -11.65625 L 16.859375 -11.65625 C 16.804688 -14.425781 16.28125 -16.441406 15.28125 -17.703125 C 14.351562 -18.859375 12.972656 -19.4375 11.140625 -19.4375 Z M 11.140625 -19.4375 "/></g></g></g><g fill="#ffffff" fill-opacity="1"><g transform="translate(331.285316, 190.499987)"><g><path d="M 8.53125 0.171875 C 6.125 0.171875 3.953125 -0.347656 2.015625 -1.390625 L 2.015625 -3.6875 L 2.421875 -3.6875 C 3.890625 -2.375 5.851562 -1.71875 8.3125 -1.71875 C 11.84375 -1.71875 13.609375 -3.003906 13.609375 -5.578125 C 13.609375 -6.765625 13.25 -7.628906 12.53125 -8.171875 C 11.769531 -8.734375 10.367188 -9.160156 8.328125 -9.453125 L 8.359375 -9.453125 C 6.210938 -9.785156 4.648438 -10.359375 3.671875 -11.171875 C 2.566406 -12.078125 2.015625 -13.394531 2.015625 -15.125 C 2.015625 -16.96875 2.671875 -18.40625 3.984375 -19.4375 C 5.242188 -20.414062 6.988281 -20.90625 9.21875 -20.90625 C 11.445312 -20.90625 13.378906 -20.46875 15.015625 -19.59375 L 15.015625 -17.4375 L 14.59375 -17.4375 C 13.101562 -18.488281 11.335938 -19.015625 9.296875 -19.015625 C 6.078125 -19.015625 4.46875 -17.84375 4.46875 -15.5 C 4.46875 -14.414062 4.863281 -13.601562 5.65625 -13.0625 C 6.457031 -12.519531 7.847656 -12.113281 9.828125 -11.84375 L 9.8125 -11.84375 C 12.09375 -11.476562 13.710938 -10.890625 14.671875 -10.078125 C 15.710938 -9.160156 16.234375 -7.785156 16.234375 -5.953125 C 16.234375 -4.023438 15.609375 -2.53125 14.359375 -1.46875 C 13.035156 -0.375 11.09375 0.171875 8.53125 0.171875 Z M 8.53125 0.171875 "/></g></g></g></svg>